<svg id="my-svg" width="100%" xmlns="http://www.w3.org/2000/svg" xmlns:xlink="http://www.w3.org/1999/xlink" class="erDiagram" style="max-width: 698.078px; background-color: white;" viewBox="0 0 698.078125 544.5" role="graphics-document document" aria-roledescription="er"><style>#my-svg{font-family:"trebuchet ms",verdana,arial,sans-serif;font-size:16px;fill:#333;}@keyframes edge-animation-frame{from{stroke-dashoffset:0;}}@keyframes dash{to{stroke-dashoffset:0;}}#my-svg .edge-animation-slow{stroke-dasharray:9,5!important;stroke-dashoffset:900;animation:dash 50s linear infinite;stroke-linecap:round;}#my-svg .edge-animation-fast{stroke-dasharray:9,5!important;stroke-dashoffset:900;animation:dash 20s linear infinite;stroke-linecap:round;}#my-svg .error-icon{fill:#552222;}#my-svg .error-text{fill:#552222;stroke:#552222;}#my-svg .edge-thickness-normal{stroke-width:1px;}#my-svg .edge-thickness-thick{stroke-width:3.5px;}#my-svg .edge-pattern-solid{stroke-dasharray:0;}#my-svg .edge-thickness-invisible{stroke-width:0;fill:none;}#my-svg .edge-pattern-dashed{stroke-dasharray:3;}#my-svg .edge-pattern-dotted{stroke-dasharray:2;}#my-svg .marker{fill:#333333;stroke:#333333;}#my-svg .marker.cross{stroke:#333333;}#my-svg svg{font-family:"trebuchet ms",verdana,arial,sans-serif;font-size:16px;}#my-svg p{margin:0;}#my-svg .entityBox{fill:#ECECFF;stroke:#9370DB;}#my-svg .relationshipLabelBox{fill:hsl(80, 100%, 96.2745098039%);opacity:0.7;background-color:hsl(80, 100%, 96.2745098039%);}#my-svg .relationshipLabelBox rect{opacity:0.5;}#my-svg .labelBkg{background-color:rgba(248.6666666666, 255, 235.9999999999, 0.5);}#my-svg .edgeLabel{background-color:rgba(232,232,232, 0.8);}#my-svg .edgeLabel .label rect{fill:rgba(232,232,232, 0.8);}#my-svg .edgeLabel .label text{fill:#333;}#my-svg .edgeLabel .label{fill:#9370DB;font-size:14px;}#my-svg .label{font-family:"trebuchet ms",verdana,arial,sans-serif;color:#333;}#my-svg .edge-pattern-dashed{stroke-dasharray:8,8;}#my-svg .node rect,#my-svg .node circle,#my-svg .node ellipse,#my-svg .node polygon{fill:#ECECFF;stroke:#9370DB;stroke-width:1px;}#my-svg .relationshipLine{stroke:#333333;stroke-width:1px;fill:none;}#my-svg .marker{fill:none!important;stroke:#333333!important;stroke-width:1;}#my-svg [data-look=neo].labelBkg{background-color:rgba(248.6666666666, 255, 235.9999999999, 0.5);}#my-svg .cluster rect{fill:#ffffde;stroke:#aaaa33;stroke-width:1px;}#my-svg .cluster text{fill:#333;}#my-svg .cluster-label text{fill:#333;}#my-svg .node .neo-node{stroke:#9370DB;}#my-svg [data-look="neo"].node rect,#my-svg [data-look="neo"].cluster rect,#my-svg [data-look="neo"].node polygon{stroke:#9370DB;filter:drop-shadow(1px 2px 2px rgba(185, 185, 185, 1));}#my-svg [data-look="neo"].swimlane.cluster rect{filter:none;}#my-svg [data-look="neo"].node path{stroke:#9370DB;stroke-width:1px;}#my-svg [data-look="neo"].node .outer-path{filter:drop-shadow(1px 2px 2px rgba(185, 185, 185, 1));}#my-svg [data-look="neo"].node .neo-line path{stroke:#9370DB;filter:none;}#my-svg [data-look="neo"].node circle{stroke:#9370DB;filter:drop-shadow(1px 2px 2px rgba(185, 185, 185, 1));}#my-svg [data-look="neo"].node circle .state-start{fill:#000000;}#my-svg [data-look="neo"].icon-shape .icon{fill:#9370DB;filter:drop-shadow(1px 2px 2px rgba(185, 185, 185, 1));}#my-svg [data-look="neo"].icon-shape .icon-neo path{stroke:#9370DB;filter:drop-shadow(1px 2px 2px rgba(185, 185, 185, 1));}#my-svg :root{--mermaid-font-family:"trebuchet ms",verdana,arial,sans-serif;}</style><g><defs><marker id="my-svg_er-onlyOneStart" class="marker onlyOne er" refX="0" refY="9" markerWidth="18" markerHeight="18" orient="auto"><path d="M9,0 L9,18 M15,0 L15,18"/></marker></defs><defs><marker id="my-svg_er-onlyOneEnd" class="marker onlyOne er" refX="18" refY="9" markerWidth="18" markerHeight="18" orient="auto"><path d="M3,0 L3,18 M9,0 L9,18"/></marker></defs><defs><marker id="my-svg_er-zeroOrOneStart" class="marker zeroOrOne er" refX="0" refY="9" markerWidth="30" markerHeight="18" orient="auto"><circle fill="white" cx="21" cy="9" r="6"/><path d="M9,0 L9,18"/></marker></defs><defs><marker id="my-svg_er-zeroOrOneEnd" class="marker zeroOrOne er" refX="30" refY="9" markerWidth="30" markerHeight="18" orient="auto"><circle fill="white" cx="9" cy="9" r="6"/><path d="M21,0 L21,18"/></marker></defs><defs><marker id="my-svg_er-oneOrMoreStart" class="marker oneOrMore er" refX="18" refY="18" markerWidth="45" markerHeight="36" orient="auto"><path d="M0,18 Q 18,0 36,18 Q 18,36 0,18 M42,9 L42,27"/></marker></defs><defs><marker id="my-svg_er-oneOrMoreEnd" class="marker oneOrMore er" refX="27" refY="18" markerWidth="45" markerHeight="36" orient="auto"><path d="M3,9 L3,27 M9,18 Q27,0 45,18 Q27,36 9,18"/></marker></defs><defs><marker id="my-svg_er-zeroOrMoreStart" class="marker zeroOrMore er" refX="18" refY="18" markerWidth="57" markerHeight="36" orient="auto"><circle fill="white" cx="48" cy="18" r="6"/><path d="M0,18 Q18,0 36,18 Q18,36 0,18"/></marker></defs><defs><marker id="my-svg_er-zeroOrMoreEnd" class="marker zeroOrMore er" refX="39" refY="18" markerWidth="57" markerHeight="36" orient="auto"><circle fill="white" cx="9" cy="18" r="6"/><path d="M21,18 Q39,0 57,18 Q39,36 21,18"/></marker></defs><g class="root"><g class="clusters"/><g class="edgePaths"><path d="M171.412,136.25L167.995,144.667C164.578,153.083,157.744,169.917,165.029,188.672C172.314,207.427,193.717,228.104,204.419,238.443L215.121,248.782" id="my-svg-id_entity-SERVICE-0_entity-CONNECTION-1_0" class="edge-thickness-normal edge-pattern-solid relationshipLine" style="undefined;;;undefined" data-edge="true" data-et="edge" data-id="id_entity-SERVICE-0_entity-CONNECTION-1_0" data-points="W3sieCI6MTcxLjQxMjAxMzUyOTE3MTIyLCJ5IjoxMzYuMjV9LHsieCI6MTUwLjkxMDE1NjI1LCJ5IjoxODYuNzV9LHsieCI6MjE1LjEyMTA5Mzc1LCJ5IjoyNDguNzgxNTA0NTYzMjgyNTR9XQ==" data-look="classic" marker-start="url(#my-svg_er-onlyOneStart)" marker-end="url(#my-svg_er-zeroOrMoreEnd)"/><path d="M287.302,136.25L299.096,144.667C310.89,153.083,334.478,169.917,346.272,186.75C358.066,203.583,358.066,220.417,358.066,228.833L358.066,237.25" id="my-svg-id_entity-SERVICE-0_entity-CONNECTION-1_1" class="edge-thickness-normal edge-pattern-solid relationshipLine" style="undefined;;;undefined" data-edge="true" data-et="edge" data-id="id_entity-SERVICE-0_entity-CONNECTION-1_1" data-points="W3sieCI6Mjg3LjMwMjA0MjE1NTEyNTQsInkiOjEzNi4yNX0seyJ4IjozNTguMDY2NDA2MjUsInkiOjE4Ni43NX0seyJ4IjozNTguMDY2NDA2MjUsInkiOjIzNy4yNX1d" data-look="classic" marker-start="url(#my-svg_er-onlyOneStart)" marker-end="url(#my-svg_er-zeroOrMoreEnd)"/><path d="M608.484,136.25L608.484,144.667C608.484,153.083,608.484,169.917,590.572,192.648C572.66,215.379,536.836,244.009,518.924,258.324L501.012,272.638" id="my-svg-id_entity-HOST-2_entity-CONNECTION-1_2" class="edge-thickness-normal edge-pattern-solid relationshipLine" style="undefined;;;undefined" data-edge="true" data-et="edge" data-id="id_entity-HOST-2_entity-CONNECTION-1_2" data-points="W3sieCI6NjA4LjQ4NDM3NSwieSI6MTM2LjI1fSx7IngiOjYwOC40ODQzNzUsInkiOjE4Ni43NX0seyJ4Ijo1MDEuMDExNzE4NzUsInkiOjI3Mi42MzgyNjY4ODE5MzE3N31d" data-look="classic" marker-start="url(#my-svg_er-onlyOneStart)" marker-end="url(#my-svg_er-zeroOrMoreEnd)"/></g><g class="edgeLabels"><g class="edgeLabel" transform="translate(163.41616, 198.83153)"><g class="label" data-id="id_entity-SERVICE-0_entity-CONNECTION-1_0" transform="translate(-30.3828125, -10.5)"><foreignObject width="60.765625" height="21"><div xmlns="http://www.w3.org/1999/xhtml" class="labelBkg" style="display: table-cell; white-space: nowrap; line-height: 1.5; max-width: 200px; text-align: center;"><span class="edgeLabel"><p>calls (src)</p></span></div></foreignObject></g></g><g class="edgeLabel" transform="translate(358.06640625, 186.75)"><g class="label" data-id="id_entity-SERVICE-0_entity-CONNECTION-1_1" transform="translate(-42.6875, -10.5)"><foreignObject width="85.375" height="21"><div xmlns="http://www.w3.org/1999/xhtml" class="labelBkg" style="display: table-cell; white-space: nowrap; line-height: 1.5; max-width: 200px; text-align: center;"><span class="edgeLabel"><p>is called (dst)</p></span></div></foreignObject></g></g><g class="edgeLabel" transform="translate(608.484375, 186.75)"><g class="label" data-id="id_entity-HOST-2_entity-CONNECTION-1_2" transform="translate(-27.109375, -10.5)"><foreignObject width="54.21875" height="21"><div xmlns="http://www.w3.org/1999/xhtml" class="labelBkg" style="display: table-cell; white-space: nowrap; line-height: 1.5; max-width: 200px; text-align: center;"><span class="edgeLabel"><p>observes</p></span></div></foreignObject></g></g></g><g class="nodes"><g class="node default" id="my-svg-entity-SERVICE-0" data-look="classic" transform="translate(197.4453125, 72.125)"><g class="outer-path" style=""><path d="M-189.4453125 -64.125 L189.4453125 -64.125 L189.4453125 64.125 L-189.4453125 64.125" stroke="none" stroke-width="0" fill="#ECECFF"/><path d="M-189.4453125 -64.125 C-63.24532663542185 -64.125, 62.954659229156306 -64.125, 189.4453125 -64.125 M-189.4453125 -64.125 C-68.93660576609062 -64.125, 51.572100967818756 -64.125, 189.4453125 -64.125 M189.4453125 -64.125 C189.4453125 -15.40891316879344, 189.4453125 33.30717366241312, 189.4453125 64.125 M189.4453125 -64.125 C189.4453125 -25.27788497886982, 189.4453125 13.569230042260358, 189.4453125 64.125 M189.4453125 64.125 C86.74734614610969 64.125, -15.950620207780617 64.125, -189.4453125 64.125 M189.4453125 64.125 C97.7538862129003 64.125, 6.062459925800596 64.125, -189.4453125 64.125 M-189.4453125 64.125 C-189.4453125 28.99537025261199, -189.4453125 -6.134259494776018, -189.4453125 -64.125 M-189.4453125 64.125 C-189.4453125 20.823293166630833, -189.4453125 -22.478413666738334, -189.4453125 -64.125" stroke="#9370DB" stroke-width="1.3" fill="none" stroke-dasharray="0 0"/></g><g style="" class="row-rect-odd"><path d="M-189.4453125 -21.375 L189.4453125 -21.375 L189.4453125 21.375 L-189.4453125 21.375" stroke="none" stroke-width="0" fill="hsl(240, 100%, 100%)"/><path d="M-189.4453125 -21.375 C-54.8645731960313 -21.375, 79.7161661079374 -21.375, 189.4453125 -21.375 M-189.4453125 -21.375 C-60.220008264106724 -21.375, 69.00529597178655 -21.375, 189.4453125 -21.375 M189.4453125 -21.375 C189.4453125 -4.659386627613028, 189.4453125 12.056226744773944, 189.4453125 21.375 M189.4453125 -21.375 C189.4453125 -11.56320919628275, 189.4453125 -1.7514183925655011, 189.4453125 21.375 M189.4453125 21.375 C109.2583626323922 21.375, 29.071412764784412 21.375, -189.4453125 21.375 M189.4453125 21.375 C99.72574420179701 21.375, 10.006175903594027 21.375, -189.4453125 21.375 M-189.4453125 21.375 C-189.4453125 7.4229595359933835, -189.4453125 -6.529080928013233, -189.4453125 -21.375 M-189.4453125 21.375 C-189.4453125 9.876677344445358, -189.4453125 -1.6216453111092832, -189.4453125 -21.375" stroke="#9370DB" stroke-width="1.3" fill="none" stroke-dasharray="0 0"/></g><g style="" class="row-rect-even"><path d="M-189.4453125 21.375 L189.4453125 21.375 L189.4453125 64.125 L-189.4453125 64.125" stroke="none" stroke-width="0" fill="hsl(240, 100%, 97.2745098039%)"/><path d="M-189.4453125 21.375 C-82.62750382238322 21.375, 24.190304855233563 21.375, 189.4453125 21.375 M-189.4453125 21.375 C-64.24184677862547 21.375, 60.961618942749055 21.375, 189.4453125 21.375 M189.4453125 21.375 C189.4453125 31.691241426979637, 189.4453125 42.007482853959274, 189.4453125 64.125 M189.4453125 21.375 C189.4453125 30.276574306035513, 189.4453125 39.17814861207103, 189.4453125 64.125 M189.4453125 64.125 C94.54117581568 64.125, -0.36296086863998767 64.125, -189.4453125 64.125 M189.4453125 64.125 C108.57584935711883 64.125, 27.706386214237654 64.125, -189.4453125 64.125 M-189.4453125 64.125 C-189.4453125 54.62019299194816, -189.4453125 45.11538598389632, -189.4453125 21.375 M-189.4453125 64.125 C-189.4453125 48.85567956520867, -189.4453125 33.586359130417335, -189.4453125 21.375" stroke="#9370DB" stroke-width="1.3" fill="none" stroke-dasharray="0 0"/></g><g class="label name" transform="translate(-28.421875, -54.75)" style=""><foreignObject width="56.84375" height="24"><div xmlns="http://www.w3.org/1999/xhtml" style="display: table-cell; white-space: nowrap; line-height: 1.5; max-width: 165px; text-align: start;"><span class="nodeLabel"><p>SERVICE</p></span></div></foreignObject></g><g class="label attribute-type" transform="translate(-176.9453125, -12)" style=""><foreignObject width="19.65625" height="24"><div xmlns="http://www.w3.org/1999/xhtml" style="display: table-cell; white-space: nowrap; line-height: 1.5; max-width: 117px; text-align: start;"><span class="nodeLabel"><p>int</p></span></div></foreignObject></g><g class="label attribute-name" transform="translate(-122.5078125, -12)" style=""><foreignObject width="13.484375" height="24"><div xmlns="http://www.w3.org/1999/xhtml" style="display: table-cell; white-space: nowrap; line-height: 1.5; max-width: 112px; text-align: start;"><span class="nodeLabel"><p>id</p></span></div></foreignObject></g><g class="label attribute-keys" transform="translate(0.5078125, -12)" style=""><foreignObject width="18.140625" height="24"><div xmlns="http://www.w3.org/1999/xhtml" style="display: table-cell; white-space: nowrap; line-height: 1.5; max-width: 120px; text-align: start;"><span class="nodeLabel"><p>PK</p></span></div></foreignObject></g><g class="label attribute-comment" transform="translate(45.1015625, -12)" style=""><foreignObject width="0" height="0"><div xmlns="http://www.w3.org/1999/xhtml" style="display: table-cell; white-space: nowrap; line-height: 1.5; max-width: 100px; text-align: start;"><span class="nodeLabel"></span></div></foreignObject></g><g class="label attribute-type" transform="translate(-176.9453125, 30.75)" style=""><foreignObject width="29.4375" height="24"><div xmlns="http://www.w3.org/1999/xhtml" style="display: table-cell; white-space: nowrap; line-height: 1.5; max-width: 124px; text-align: start;"><span class="nodeLabel"><p>text</p></span></div></foreignObject></g><g class="label attribute-name" transform="translate(-122.5078125, 30.75)" style=""><foreignObject width="98.015625" height="24"><div xmlns="http://www.w3.org/1999/xhtml" style="display: table-cell; white-space: nowrap; line-height: 1.5; max-width: 188px; text-align: start;"><span class="nodeLabel"><p>service_name</p></span></div></foreignObject></g><g class="label attribute-keys" transform="translate(0.5078125, 30.75)" style=""><foreignObject width="19.59375" height="24"><div xmlns="http://www.w3.org/1999/xhtml" style="display: table-cell; white-space: nowrap; line-height: 1.5; max-width: 123px; text-align: start;"><span class="nodeLabel"><p>UK</p></span></div></foreignObject></g><g class="label attribute-comment" transform="translate(45.1015625, 30.75)" style=""><foreignObject width="131.84375" height="24"><div xmlns="http://www.w3.org/1999/xhtml" style="display: table-cell; white-space: nowrap; line-height: 1.5; max-width: 220px; text-align: start;"><span class="nodeLabel"><p>OTel service.name</p></span></div></foreignObject></g><g class="divider"><path d="M-189.4453125 -21.37505 L-189.4453125 -21.37495 L189.4453125 -21.37495 L189.4453125 -21.37505" stroke="none" stroke-width="0" fill="#ECECFF" fill-rule="evenodd"/><path d="M-189.4453125 -21.37505 C-189.4453125 -21.375027491107534, -189.4453125 -21.37500498221507, -189.4453125 -21.37495 M-189.4453125 -21.37505 C-189.4453125 -21.375014746757515, -189.4453125 -21.37497949351503, -189.4453125 -21.37495 M-189.4453125 -21.37495 C-42.05230553702313 -21.37495, 105.34070142595374 -21.37495, 189.4453125 -21.37495 M-189.4453125 -21.37495 C-70.1304461000307 -21.37495, 49.18442029993861 -21.37495, 189.4453125 -21.37495 M189.4453125 -21.37495 C189.4453125 -21.374972968021336, 189.4453125 -21.37499593604267, 189.4453125 -21.37505 M189.4453125 -21.37495 C189.4453125 -21.374987657166862, 189.4453125 -21.375025314333723, 189.4453125 -21.37505 M189.4453125 -21.37505 C103.61665697989451 -21.37505, 17.78800145978903 -21.37505, -189.4453125 -21.37505 M189.4453125 -21.37505 C110.35724466062479 -21.37505, 31.269176821249573 -21.37505, -189.4453125 -21.37505" stroke="#9370DB" stroke-width="1.3" fill="none" stroke-dasharray="0 0"/></g><g class="divider"><path d="M-135.0078625 -21.375 L-135.0077625 -21.375 L-135.0077625 64.125 L-135.0078625 64.125" stroke="none" stroke-width="0" fill="#ECECFF" fill-rule="evenodd"/><path d="M-135.0078625 -21.375 C-135.00782353958408 -21.375, -135.00778457916817 -21.375, -135.0077625 -21.375 M-135.0078625 -21.375 C-135.00782826622935 -21.375, -135.00779403245875 -21.375, -135.0077625 -21.375 M-135.0077625 -21.375 C-135.0077625 11.342415617074224, -135.0077625 44.05983123414845, -135.0077625 64.125 M-135.0077625 -21.375 C-135.0077625 9.965618857955292, -135.0077625 41.306237715910584, -135.0077625 64.125 M-135.0077625 64.125 C-135.0077827794559 64.125, -135.0078030589118 64.125, -135.0078625 64.125 M-135.0077625 64.125 C-135.007801455564 64.125, -135.00784041112794 64.125, -135.0078625 64.125 M-135.0078625 64.125 C-135.0078625 40.23801662516491, -135.0078625 16.35103325032982, -135.0078625 -21.375 M-135.0078625 64.125 C-135.0078625 33.617660164206214, -135.0078625 3.1103203284124206, -135.0078625 -21.375" stroke="#9370DB" stroke-width="1.3" fill="none" stroke-dasharray="0 0"/></g><g class="divider"><path d="M-11.9922375 -21.375 L-11.9921375 -21.375 L-11.9921375 64.125 L-11.9922375 64.125" stroke="none" stroke-width="0" fill="#ECECFF" fill-rule="evenodd"/><path d="M-11.9922375 -21.375 C-11.992200853200343 -21.375, -11.992164206400684 -21.375, -11.9921375 -21.375 M-11.9922375 -21.375 C-11.992203501771288 -21.375, -11.992169503542573 -21.375, -11.9921375 -21.375 M-11.9921375 -21.375 C-11.9921375 10.610570862641172, -11.9921375 42.596141725282344, -11.9921375 64.125 M-11.9921375 -21.375 C-11.9921375 9.446588673079408, -11.9921375 40.268177346158815, -11.9921375 64.125 M-11.9921375 64.125 C-11.992158985551796 64.125, -11.992180471103593 64.125, -11.9922375 64.125 M-11.9921375 64.125 C-11.992171258282365 64.125, -11.99220501656473 64.125, -11.9922375 64.125 M-11.9922375 64.125 C-11.9922375 37.04399317626789, -11.9922375 9.962986352535772, -11.9922375 -21.375 M-11.9922375 64.125 C-11.9922375 37.1298436431954, -11.9922375 10.134687286390793, -11.9922375 -21.375" stroke="#9370DB" stroke-width="1.3" fill="none" stroke-dasharray="0 0"/></g><g class="divider"><path d="M32.6015125 -21.375 L32.6016125 -21.375 L32.6016125 64.125 L32.6015125 64.125" stroke="none" stroke-width="0" fill="#ECECFF" fill-rule="evenodd"/><path d="M32.6015125 -21.375 C32.60153621904656 -21.375, 32.60155993809312 -21.375, 32.6016125 -21.375 M32.6015125 -21.375 C32.60154613163001 -21.375, 32.60157976326003 -21.375, 32.6016125 -21.375 M32.6016125 -21.375 C32.6016125 2.2291520126389983, 32.6016125 25.833304025277997, 32.6016125 64.125 M32.6016125 -21.375 C32.6016125 2.6299761365822256, 32.6016125 26.63495227316445, 32.6016125 64.125 M32.6016125 64.125 C32.60157754879695 64.125, 32.6015425975939 64.125, 32.6015125 64.125 M32.6016125 64.125 C32.60157376430534 64.125, 32.601535028610684 64.125, 32.6015125 64.125 M32.6015125 64.125 C32.6015125 46.14929554643261, 32.6015125 28.173591092865223, 32.6015125 -21.375 M32.6015125 64.125 C32.6015125 39.44615606779677, 32.6015125 14.767312135593542, 32.6015125 -21.375" stroke="#9370DB" stroke-width="1.3" fill="none" stroke-dasharray="0 0"/></g><g class="divider"><path d="M-189.4453125 -21.37505 L-189.4453125 -21.37495 L189.4453125 -21.37495 L189.4453125 -21.37505" stroke="none" stroke-width="0" fill="#ECECFF" fill-rule="evenodd"/><path d="M-189.4453125 -21.37505 C-189.4453125 -21.37501131947131, -189.4453125 -21.374972638942616, -189.4453125 -21.37495 M-189.4453125 -21.37505 C-189.4453125 -21.375013084430904, -189.4453125 -21.374976168861807, -189.4453125 -21.37495 M-189.4453125 -21.37495 C-53.06203449139093 -21.37495, 83.32124351721814 -21.37495, 189.4453125 -21.37495 M-189.4453125 -21.37495 C-58.016897307869186 -21.37495, 73.41151788426163 -21.37495, 189.4453125 -21.37495 M189.4453125 -21.37495 C189.4453125 -21.374984011496025, 189.4453125 -21.375018022992048, 189.4453125 -21.37505 M189.4453125 -21.37495 C189.4453125 -21.374980879674712, 189.4453125 -21.375011759349427, 189.4453125 -21.37505 M189.4453125 -21.37505 C105.27510255943143 -21.37505, 21.104892618862863 -21.37505, -189.4453125 -21.37505 M189.4453125 -21.37505 C110.61434411440224 -21.37505, 31.783375728804486 -21.37505, -189.4453125 -21.37505" stroke="#9370DB" stroke-width="1.3" fill="none" stroke-dasharray="0 0"/></g></g><g class="node default" id="my-svg-entity-CONNECTION-1" data-look="classic" transform="translate(358.06640625, 386.875)"><g class="outer-path" style=""><path d="M-142.9453125 -149.625 L142.9453125 -149.625 L142.9453125 149.625 L-142.9453125 149.625" stroke="none" stroke-width="0" fill="#ECECFF"/><path d="M-142.9453125 -149.625 C-83.64126991673552 -149.625, -24.337227333471034 -149.625, 142.9453125 -149.625 M-142.9453125 -149.625 C-30.55426691412339 -149.625, 81.83677867175322 -149.625, 142.9453125 -149.625 M142.9453125 -149.625 C142.9453125 -36.609692028699456, 142.9453125 76.40561594260109, 142.9453125 149.625 M142.9453125 -149.625 C142.9453125 -62.61066882428804, 142.9453125 24.403662351423918, 142.9453125 149.625 M142.9453125 149.625 C59.7981748060339 149.625, -23.348962887932203 149.625, -142.9453125 149.625 M142.9453125 149.625 C76.54793691832101 149.625, 10.150561336642028 149.625, -142.9453125 149.625 M-142.9453125 149.625 C-142.9453125 82.08149749167929, -142.9453125 14.537994983358573, -142.9453125 -149.625 M-142.9453125 149.625 C-142.9453125 57.46710929937052, -142.9453125 -34.69078140125896, -142.9453125 -149.625" stroke="#9370DB" stroke-width="1.3" fill="none" stroke-dasharray="0 0"/></g><g style="" class="row-rect-odd"><path d="M-142.9453125 -106.875 L142.9453125 -106.875 L142.9453125 -64.125 L-142.9453125 -64.125" stroke="none" stroke-width="0" fill="hsl(240, 100%, 100%)"/><path d="M-142.9453125 -106.875 C-34.59978775329188 -106.875, 73.74573699341624 -106.875, 142.9453125 -106.875 M-142.9453125 -106.875 C-73.81480899743339 -106.875, -4.684305494866777 -106.875, 142.9453125 -106.875 M142.9453125 -106.875 C142.9453125 -96.22665392344965, 142.9453125 -85.5783078468993, 142.9453125 -64.125 M142.9453125 -106.875 C142.9453125 -91.96283401380309, 142.9453125 -77.05066802760619, 142.9453125 -64.125 M142.9453125 -64.125 C74.56639278660536 -64.125, 6.187473073210725 -64.125, -142.9453125 -64.125 M142.9453125 -64.125 C48.01658888545805 -64.125, -46.9121347290839 -64.125, -142.9453125 -64.125 M-142.9453125 -64.125 C-142.9453125 -77.76143692960514, -142.9453125 -91.39787385921029, -142.9453125 -106.875 M-142.9453125 -64.125 C-142.9453125 -79.6845205242716, -142.9453125 -95.2440410485432, -142.9453125 -106.875" stroke="#9370DB" stroke-width="1.3" fill="none" stroke-dasharray="0 0"/></g><g style="" class="row-rect-even"><path d="M-142.9453125 -64.125 L142.9453125 -64.125 L142.9453125 -21.375 L-142.9453125 -21.375" stroke="none" stroke-width="0" fill="hsl(240, 100%, 97.2745098039%)"/><path d="M-142.9453125 -64.125 C-47.32641825105473 -64.125, 48.292475997890534 -64.125, 142.9453125 -64.125 M-142.9453125 -64.125 C-64.80081942921834 -64.125, 13.343673641563328 -64.125, 142.9453125 -64.125 M142.9453125 -64.125 C142.9453125 -51.496502481528346, 142.9453125 -38.86800496305669, 142.9453125 -21.375 M142.9453125 -64.125 C142.9453125 -50.19879241301575, 142.9453125 -36.2725848260315, 142.9453125 -21.375 M142.9453125 -21.375 C47.24260108195645 -21.375, -48.4601103360871 -21.375, -142.9453125 -21.375 M142.9453125 -21.375 C75.18305518773806 -21.375, 7.420797875476126 -21.375, -142.9453125 -21.375 M-142.9453125 -21.375 C-142.9453125 -33.846820796297706, -142.9453125 -46.318641592595405, -142.9453125 -64.125 M-142.9453125 -21.375 C-142.9453125 -31.995342858443205, -142.9453125 -42.61568571688641, -142.9453125 -64.125" stroke="#9370DB" stroke-width="1.3" fill="none" stroke-dasharray="0 0"/></g><g style="" class="row-rect-odd"><path d="M-142.9453125 -21.375 L142.9453125 -21.375 L142.9453125 21.375 L-142.9453125 21.375" stroke="none" stroke-width="0" fill="hsl(240, 100%, 100%)"/><path d="M-142.9453125 -21.375 C-44.49736297519746 -21.375, 53.95058654960508 -21.375, 142.9453125 -21.375 M-142.9453125 -21.375 C-48.277405348734476 -21.375, 46.39050180253105 -21.375, 142.9453125 -21.375 M142.9453125 -21.375 C142.9453125 -8.387536328250462, 142.9453125 4.5999273434990755, 142.9453125 21.375 M142.9453125 -21.375 C142.9453125 -9.118208226700258, 142.9453125 3.1385835465994845, 142.9453125 21.375 M142.9453125 21.375 C54.47771184346888 21.375, -33.98988881306224 21.375, -142.9453125 21.375 M142.9453125 21.375 C62.805930689252875 21.375, -17.33345112149425 21.375, -142.9453125 21.375 M-142.9453125 21.375 C-142.9453125 11.539493623383727, -142.9453125 1.7039872467674542, -142.9453125 -21.375 M-142.9453125 21.375 C-142.9453125 10.740050070873938, -142.9453125 0.10510014174787585, -142.9453125 -21.375" stroke="#9370DB" stroke-width="1.3" fill="none" stroke-dasharray="0 0"/></g><g style="" class="row-rect-even"><path d="M-142.9453125 21.375 L142.9453125 21.375 L142.9453125 64.125 L-142.9453125 64.125" stroke="none" stroke-width="0" fill="hsl(240, 100%, 97.2745098039%)"/><path d="M-142.9453125 21.375 C-81.51048878922063 21.375, -20.07566507844126 21.375, 142.9453125 21.375 M-142.9453125 21.375 C-59.14063556193449 21.375, 24.664041376131024 21.375, 142.9453125 21.375 M142.9453125 21.375 C142.9453125 32.161085756963374, 142.9453125 42.947171513926754, 142.9453125 64.125 M142.9453125 21.375 C142.9453125 34.02570339967167, 142.9453125 46.67640679934334, 142.9453125 64.125 M142.9453125 64.125 C50.86527557287964 64.125, -41.21476135424072 64.125, -142.9453125 64.125 M142.9453125 64.125 C32.664393096076125 64.125, -77.61652630784775 64.125, -142.9453125 64.125 M-142.9453125 64.125 C-142.9453125 47.81294868753109, -142.9453125 31.500897375062173, -142.9453125 21.375 M-142.9453125 64.125 C-142.9453125 50.51285520309096, -142.9453125 36.900710406181915, -142.9453125 21.375" stroke="#9370DB" stroke-width="1.3" fill="none" stroke-dasharray="0 0"/></g><g style="" class="row-rect-odd"><path d="M-142.9453125 64.125 L142.9453125 64.125 L142.9453125 106.875 L-142.9453125 106.875" stroke="none" stroke-width="0" fill="hsl(240, 100%, 100%)"/><path d="M-142.9453125 64.125 C-38.74001767866241 64.125, 65.46527714267518 64.125, 142.9453125 64.125 M-142.9453125 64.125 C-69.94865759790059 64.125, 3.047997304198816 64.125, 142.9453125 64.125 M142.9453125 64.125 C142.9453125 75.88697031770161, 142.9453125 87.64894063540322, 142.9453125 106.875 M142.9453125 64.125 C142.9453125 77.29529013101985, 142.9453125 90.46558026203971, 142.9453125 106.875 M142.9453125 106.875 C84.86406269338313 106.875, 26.782812886766266 106.875, -142.9453125 106.875 M142.9453125 106.875 C68.24614288524769 106.875, -6.453026729504614 106.875, -142.9453125 106.875 M-142.9453125 106.875 C-142.9453125 90.55503626307592, -142.9453125 74.23507252615182, -142.9453125 64.125 M-142.9453125 106.875 C-142.9453125 94.06674411748052, -142.9453125 81.25848823496106, -142.9453125 64.125" stroke="#9370DB" stroke-width="1.3" fill="none" stroke-dasharray="0 0"/></g><g style="" class="row-rect-even"><path d="M-142.9453125 106.875 L142.9453125 106.875 L142.9453125 149.625 L-142.9453125 149.625" stroke="none" stroke-width="0" fill="hsl(240, 100%, 97.2745098039%)"/><path d="M-142.9453125 106.875 C-51.208695848627016 106.875, 40.52792080274597 106.875, 142.9453125 106.875 M-142.9453125 106.875 C-60.12692789184548 106.875, 22.691456716309034 106.875, 142.9453125 106.875 M142.9453125 106.875 C142.9453125 115.983542676873, 142.9453125 125.092085353746, 142.9453125 149.625 M142.9453125 106.875 C142.9453125 122.76647543570903, 142.9453125 138.65795087141805, 142.9453125 149.625 M142.9453125 149.625 C53.168599261951314 149.625, -36.60811397609737 149.625, -142.9453125 149.625 M142.9453125 149.625 C61.96540648487027 149.625, -19.014499530259457 149.625, -142.9453125 149.625 M-142.9453125 149.625 C-142.9453125 139.4501264631771, -142.9453125 129.2752529263542, -142.9453125 106.875 M-142.9453125 149.625 C-142.9453125 133.67339059620855, -142.9453125 117.72178119241711, -142.9453125 106.875" stroke="#9370DB" stroke-width="1.3" fill="none" stroke-dasharray="0 0"/></g><g class="label name" transform="translate(-46.828125, -140.25)" style=""><foreignObject width="93.65625" height="24"><div xmlns="http://www.w3.org/1999/xhtml" style="display: table-cell; white-space: nowrap; line-height: 1.5; max-width: 204px; text-align: start;"><span class="nodeLabel"><p>CONNECTION</p></span></div></foreignObject></g><g class="label attribute-type" transform="translate(-130.4453125, -97.5)" style=""><foreignObject width="19.65625" height="24"><div xmlns="http://www.w3.org/1999/xhtml" style="display: table-cell; white-space: nowrap; line-height: 1.5; max-width: 117px; text-align: start;"><span class="nodeLabel"><p>int</p></span></div></foreignObject></g><g class="label attribute-name" transform="translate(-15.1640625, -97.5)" style=""><foreignObject width="13.484375" height="24"><div xmlns="http://www.w3.org/1999/xhtml" style="display: table-cell; white-space: nowrap; line-height: 1.5; max-width: 112px; text-align: start;"><span class="nodeLabel"><p>id</p></span></div></foreignObject></g><g class="label attribute-keys" transform="translate(112.3046875, -97.5)" style=""><foreignObject width="18.140625" height="24"><div xmlns="http://www.w3.org/1999/xhtml" style="display: table-cell; white-space: nowrap; line-height: 1.5; max-width: 120px; text-align: start;"><span class="nodeLabel"><p>PK</p></span></div></foreignObject></g><g class="label attribute-comment" transform="translate(155.4453125, -97.5)" style=""><foreignObject width="0" height="0"><div xmlns="http://www.w3.org/1999/xhtml" style="display: table-cell; white-space: nowrap; line-height: 1.5; max-width: 100px; text-align: start;"><span class="nodeLabel"></span></div></foreignObject></g><g class="label attribute-type" transform="translate(-130.4453125, -54.75)" style=""><foreignObject width="19.65625" height="24"><div xmlns="http://www.w3.org/1999/xhtml" style="display: table-cell; white-space: nowrap; line-height: 1.5; max-width: 117px; text-align: start;"><span class="nodeLabel"><p>int</p></span></div></foreignObject></g><g class="label attribute-name" transform="translate(-15.1640625, -54.75)" style=""><foreignObject width="101.34375" height="24"><div xmlns="http://www.w3.org/1999/xhtml" style="display: table-cell; white-space: nowrap; line-height: 1.5; max-width: 192px; text-align: start;"><span class="nodeLabel"><p>src_service_id</p></span></div></foreignObject></g><g class="label attribute-keys" transform="translate(112.3046875, -54.75)" style=""><foreignObject width="17.609375" height="24"><div xmlns="http://www.w3.org/1999/xhtml" style="display: table-cell; white-space: nowrap; line-height: 1.5; max-width: 120px; text-align: start;"><span class="nodeLabel"><p>FK</p></span></div></foreignObject></g><g class="label attribute-comment" transform="translate(155.4453125, -54.75)" style=""><foreignObject width="0" height="0"><div xmlns="http://www.w3.org/1999/xhtml" style="display: table-cell; white-space: nowrap; line-height: 1.5; max-width: 100px; text-align: start;"><span class="nodeLabel"></span></div></foreignObject></g><g class="label attribute-type" transform="translate(-130.4453125, -12)" style=""><foreignObject width="19.65625" height="24"><div xmlns="http://www.w3.org/1999/xhtml" style="display: table-cell; white-space: nowrap; line-height: 1.5; max-width: 117px; text-align: start;"><span class="nodeLabel"><p>int</p></span></div></foreignObject></g><g class="label attribute-name" transform="translate(-15.1640625, -12)" style=""><foreignObject width="102.46875" height="24"><div xmlns="http://www.w3.org/1999/xhtml" style="display: table-cell; white-space: nowrap; line-height: 1.5; max-width: 192px; text-align: start;"><span class="nodeLabel"><p>dst_service_id</p></span></div></foreignObject></g><g class="label attribute-keys" transform="translate(112.3046875, -12)" style=""><foreignObject width="17.609375" height="24"><div xmlns="http://www.w3.org/1999/xhtml" style="display: table-cell; white-space: nowrap; line-height: 1.5; max-width: 120px; text-align: start;"><span class="nodeLabel"><p>FK</p></span></div></foreignObject></g><g class="label attribute-comment" transform="translate(155.4453125, -12)" style=""><foreignObject width="0" height="0"><div xmlns="http://www.w3.org/1999/xhtml" style="display: table-cell; white-space: nowrap; line-height: 1.5; max-width: 100px; text-align: start;"><span class="nodeLabel"></span></div></foreignObject></g><g class="label attribute-type" transform="translate(-130.4453125, 30.75)" style=""><foreignObject width="19.65625" height="24"><div xmlns="http://www.w3.org/1999/xhtml" style="display: table-cell; white-space: nowrap; line-height: 1.5; max-width: 117px; text-align: start;"><span class="nodeLabel"><p>int</p></span></div></foreignObject></g><g class="label attribute-name" transform="translate(-15.1640625, 30.75)" style=""><foreignObject width="89.59375" height="24"><div xmlns="http://www.w3.org/1999/xhtml" style="display: table-cell; white-space: nowrap; line-height: 1.5; max-width: 182px; text-align: start;"><span class="nodeLabel"><p>observed_by</p></span></div></foreignObject></g><g class="label attribute-keys" transform="translate(112.3046875, 30.75)" style=""><foreignObject width="17.609375" height="24"><div xmlns="http://www.w3.org/1999/xhtml" style="display: table-cell; white-space: nowrap; line-height: 1.5; max-width: 120px; text-align: start;"><span class="nodeLabel"><p>FK</p></span></div></foreignObject></g><g class="label attribute-comment" transform="translate(155.4453125, 30.75)" style=""><foreignObject width="0" height="0"><div xmlns="http://www.w3.org/1999/xhtml" style="display: table-cell; white-space: nowrap; line-height: 1.5; max-width: 100px; text-align: start;"><span class="nodeLabel"></span></div></foreignObject></g><g class="label attribute-type" transform="translate(-130.4453125, 73.5)" style=""><foreignObject width="19.65625" height="24"><div xmlns="http://www.w3.org/1999/xhtml" style="display: table-cell; white-space: nowrap; line-height: 1.5; max-width: 117px; text-align: start;"><span class="nodeLabel"><p>int</p></span></div></foreignObject></g><g class="label attribute-name" transform="translate(-15.1640625, 73.5)" style=""><foreignObject width="57" height="24"><div xmlns="http://www.w3.org/1999/xhtml" style="display: table-cell; white-space: nowrap; line-height: 1.5; max-width: 152px; text-align: start;"><span class="nodeLabel"><p>samples</p></span></div></foreignObject></g><g class="label attribute-keys" transform="translate(112.3046875, 73.5)" style=""><foreignObject width="0" height="0"><div xmlns="http://www.w3.org/1999/xhtml" style="display: table-cell; white-space: nowrap; line-height: 1.5; max-width: 100px; text-align: start;"><span class="nodeLabel"></span></div></foreignObject></g><g class="label attribute-comment" transform="translate(155.4453125, 73.5)" style=""><foreignObject width="0" height="0"><div xmlns="http://www.w3.org/1999/xhtml" style="display: table-cell; white-space: nowrap; line-height: 1.5; max-width: 100px; text-align: start;"><span class="nodeLabel"></span></div></foreignObject></g><g class="label attribute-type" transform="translate(-130.4453125, 116.25)" style=""><foreignObject width="90.28125" height="24"><div xmlns="http://www.w3.org/1999/xhtml" style="display: table-cell; white-space: nowrap; line-height: 1.5; max-width: 178px; text-align: start;"><span class="nodeLabel"><p>timestamptz</p></span></div></foreignObject></g><g class="label attribute-name" transform="translate(-15.1640625, 116.25)" style=""><foreignObject width="67.015625" height="24"><div xmlns="http://www.w3.org/1999/xhtml" style="display: table-cell; white-space: nowrap; line-height: 1.5; max-width: 159px; text-align: start;"><span class="nodeLabel"><p>last_seen</p></span></div></foreignObject></g><g class="label attribute-keys" transform="translate(112.3046875, 116.25)" style=""><foreignObject width="0" height="0"><div xmlns="http://www.w3.org/1999/xhtml" style="display: table-cell; white-space: nowrap; line-height: 1.5; max-width: 100px; text-align: start;"><span class="nodeLabel"></span></div></foreignObject></g><g class="label attribute-comment" transform="translate(155.4453125, 116.25)" style=""><foreignObject width="0" height="0"><div xmlns="http://www.w3.org/1999/xhtml" style="display: table-cell; white-space: nowrap; line-height: 1.5; max-width: 100px; text-align: start;"><span class="nodeLabel"></span></div></foreignObject></g><g class="divider"><path d="M-142.9453125 -106.87505 L-142.9453125 -106.87495 L142.9453125 -106.87495 L142.9453125 -106.87505" stroke="none" stroke-width="0" fill="#ECECFF" fill-rule="evenodd"/><path d="M-142.9453125 -106.87505 C-142.9453125 -106.87501716115031, -142.9453125 -106.8749843223006, -142.9453125 -106.87495 M-142.9453125 -106.87505 C-142.9453125 -106.87501675495803, -142.9453125 -106.87498350991605, -142.9453125 -106.87495 M-142.9453125 -106.87495 C-63.8137849762157 -106.87495, 15.3177425475686 -106.87495, 142.9453125 -106.87495 M-142.9453125 -106.87495 C-42.80537938639411 -106.87495, 57.334553727211784 -106.87495, 142.9453125 -106.87495 M142.9453125 -106.87495 C142.9453125 -106.87498557194397, 142.9453125 -106.87502114388793, 142.9453125 -106.87505 M142.9453125 -106.87495 C142.9453125 -106.87497738791193, 142.9453125 -106.87500477582384, 142.9453125 -106.87505 M142.9453125 -106.87505 C42.07681800571754 -106.87505, -58.79167648856492 -106.87505, -142.9453125 -106.87505 M142.9453125 -106.87505 C73.22924956768433 -106.87505, 3.513186635368669 -106.87505, -142.9453125 -106.87505" stroke="#9370DB" stroke-width="1.3" fill="none" stroke-dasharray="0 0"/></g><g class="divider"><path d="M-27.6641125 -106.875 L-27.6640125 -106.875 L-27.6640125 149.625 L-27.6641125 149.625" stroke="none" stroke-width="0" fill="#ECECFF" fill-rule="evenodd"/><path d="M-27.6641125 -106.875 C-27.664084574776094 -106.875, -27.664056649552183 -106.875, -27.6640125 -106.875 M-27.6641125 -106.875 C-27.664085622770447 -106.875, -27.66405874554089 -106.875, -27.6640125 -106.875 M-27.6640125 -106.875 C-27.6640125 -51.94825118663009, -27.6640125 2.9784976267398235, -27.6640125 149.625 M-27.6640125 -106.875 C-27.6640125 -43.8234043760281, -27.6640125 19.228191247943798, -27.6640125 149.625 M-27.6640125 149.625 C-27.66403699431363 149.625, -27.66406148862726 149.625, -27.6641125 149.625 M-27.6640125 149.625 C-27.664041112371674 149.625, -27.66406972474335 149.625, -27.6641125 149.625 M-27.6641125 149.625 C-27.6641125 48.11195450120542, -27.6641125 -53.401090997589165, -27.6641125 -106.875 M-27.6641125 149.625 C-27.6641125 51.68991353655193, -27.6641125 -46.245172926896146, -27.6641125 -106.875" stroke="#9370DB" stroke-width="1.3" fill="none" stroke-dasharray="0 0"/></g><g class="divider"><path d="M99.8046375 -106.875 L99.8047375 -106.875 L99.8047375 149.625 L99.8046375 149.625" stroke="none" stroke-width="0" fill="#ECECFF" fill-rule="evenodd"/><path d="M99.8046375 -106.875 C99.80467518589438 -106.875, 99.80471287178878 -106.875, 99.8047375 -106.875 M99.8046375 -106.875 C99.80466122967657 -106.875, 99.80468495935314 -106.875, 99.8047375 -106.875 M99.8047375 -106.875 C99.8047375 -51.619892033014345, 99.8047375 3.6352159339713097, 99.8047375 149.625 M99.8047375 -106.875 C99.8047375 -53.99620056786056, 99.8047375 -1.1174011357211242, 99.8047375 149.625 M99.8047375 149.625 C99.80470691948642 149.625, 99.80467633897283 149.625, 99.8046375 149.625 M99.8047375 149.625 C99.80470127632557 149.625, 99.80466505265113 149.625, 99.8046375 149.625 M99.8046375 149.625 C99.8046375 93.56561862052675, 99.8046375 37.50623724105351, 99.8046375 -106.875 M99.8046375 149.625 C99.8046375 64.02570855518222, 99.8046375 -21.57358288963556, 99.8046375 -106.875" stroke="#9370DB" stroke-width="1.3" fill="none" stroke-dasharray="0 0"/></g><g class="divider"><path d="M-142.9453125 -106.87505 L-142.9453125 -106.87495 L142.9453125 -106.87495 L142.9453125 -106.87505" stroke="none" stroke-width="0" fill="#ECECFF" fill-rule="evenodd"/><path d="M-142.9453125 -106.87505 C-142.9453125 -106.87501138572684, -142.9453125 -106.87497277145368, -142.9453125 -106.87495 M-142.9453125 -106.87505 C-142.9453125 -106.87502651422768, -142.9453125 -106.87500302845537, -142.9453125 -106.87495 M-142.9453125 -106.87495 C-70.12590107647831 -106.87495, 2.6935103470433717 -106.87495, 142.9453125 -106.87495 M-142.9453125 -106.87495 C-59.31242581497301 -106.87495, 24.320460870053978 -106.87495, 142.9453125 -106.87495 M142.9453125 -106.87495 C142.9453125 -106.87498351549792, 142.9453125 -106.87501703099582, 142.9453125 -106.87505 M142.9453125 -106.87495 C142.9453125 -106.87497666941412, 142.9453125 -106.87500333882825, 142.9453125 -106.87505 M142.9453125 -106.87505 C57.37165536058498 -106.87505, -28.202001778830038 -106.87505, -142.9453125 -106.87505 M142.9453125 -106.87505 C51.550111529684415 -106.87505, -39.84508944063117 -106.87505, -142.9453125 -106.87505" stroke="#9370DB" stroke-width="1.3" fill="none" stroke-dasharray="0 0"/></g></g><g class="node default" id="my-svg-entity-HOST-2" data-look="classic" transform="translate(608.484375, 72.125)"><g class="outer-path" style=""><path d="M-81.59375 -64.125 L81.59375 -64.125 L81.59375 64.125 L-81.59375 64.125" stroke="none" stroke-width="0" fill="#ECECFF"/><path d="M-81.59375 -64.125 C-48.90532232073154 -64.125, -16.216894641463085 -64.125, 81.59375 -64.125 M-81.59375 -64.125 C-35.119960805393625 -64.125, 11.353828389212751 -64.125, 81.59375 -64.125 M81.59375 -64.125 C81.59375 -29.418054345570653, 81.59375 5.288891308858695, 81.59375 64.125 M81.59375 -64.125 C81.59375 -14.30396470449589, 81.59375 35.51707059100822, 81.59375 64.125 M81.59375 64.125 C44.61402179318784 64.125, 7.6342935863756765 64.125, -81.59375 64.125 M81.59375 64.125 C19.745626489435935 64.125, -42.10249702112813 64.125, -81.59375 64.125 M-81.59375 64.125 C-81.59375 35.53605650646448, -81.59375 6.947113012928966, -81.59375 -64.125 M-81.59375 64.125 C-81.59375 24.152772882548696, -81.59375 -15.819454234902608, -81.59375 -64.125" stroke="#9370DB" stroke-width="1.3" fill="none" stroke-dasharray="0 0"/></g><g style="" class="row-rect-odd"><path d="M-81.59375 -21.375 L81.59375 -21.375 L81.59375 21.375 L-81.59375 21.375" stroke="none" stroke-width="0" fill="hsl(240, 100%, 100%)"/><path d="M-81.59375 -21.375 C-36.818209274177384 -21.375, 7.957331451645231 -21.375, 81.59375 -21.375 M-81.59375 -21.375 C-35.13571164243133 -21.375, 11.322326715137336 -21.375, 81.59375 -21.375 M81.59375 -21.375 C81.59375 -10.713789065349241, 81.59375 -0.05257813069848183, 81.59375 21.375 M81.59375 -21.375 C81.59375 -8.79878311941005, 81.59375 3.7774337611799, 81.59375 21.375 M81.59375 21.375 C20.55478024998488 21.375, -40.48418950003024 21.375, -81.59375 21.375 M81.59375 21.375 C28.280544862003154 21.375, -25.032660275993692 21.375, -81.59375 21.375 M-81.59375 21.375 C-81.59375 8.522767181954736, -81.59375 -4.329465636090529, -81.59375 -21.375 M-81.59375 21.375 C-81.59375 5.801024361975955, -81.59375 -9.77295127604809, -81.59375 -21.375" stroke="#9370DB" stroke-width="1.3" fill="none" stroke-dasharray="0 0"/></g><g style="" class="row-rect-even"><path d="M-81.59375 21.375 L81.59375 21.375 L81.59375 64.125 L-81.59375 64.125" stroke="none" stroke-width="0" fill="hsl(240, 100%, 97.2745098039%)"/><path d="M-81.59375 21.375 C-23.56589538110662 21.375, 34.46195923778676 21.375, 81.59375 21.375 M-81.59375 21.375 C-28.578796804027427 21.375, 24.436156391945147 21.375, 81.59375 21.375 M81.59375 21.375 C81.59375 36.12070521881883, 81.59375 50.866410437637654, 81.59375 64.125 M81.59375 21.375 C81.59375 32.31128575679296, 81.59375 43.247571513585925, 81.59375 64.125 M81.59375 64.125 C25.36337774406845 64.125, -30.866994511863098 64.125, -81.59375 64.125 M81.59375 64.125 C44.411152530088145 64.125, 7.228555060176291 64.125, -81.59375 64.125 M-81.59375 64.125 C-81.59375 48.05993085555711, -81.59375 31.994861711114233, -81.59375 21.375 M-81.59375 64.125 C-81.59375 50.30054043943194, -81.59375 36.47608087886388, -81.59375 21.375" stroke="#9370DB" stroke-width="1.3" fill="none" stroke-dasharray="0 0"/></g><g class="label name" transform="translate(-19.1171875, -54.75)" style=""><foreignObject width="38.234375" height="24"><div xmlns="http://www.w3.org/1999/xhtml" style="display: table-cell; white-space: nowrap; line-height: 1.5; max-width: 142px; text-align: start;"><span class="nodeLabel"><p>HOST</p></span></div></foreignObject></g><g class="label attribute-type" transform="translate(-69.09375, -12)" style=""><foreignObject width="19.65625" height="24"><div xmlns="http://www.w3.org/1999/xhtml" style="display: table-cell; white-space: nowrap; line-height: 1.5; max-width: 117px; text-align: start;"><span class="nodeLabel"><p>int</p></span></div></foreignObject></g><g class="label attribute-name" transform="translate(-14.65625, -12)" style=""><foreignObject width="13.484375" height="24"><div xmlns="http://www.w3.org/1999/xhtml" style="display: table-cell; white-space: nowrap; line-height: 1.5; max-width: 112px; text-align: start;"><span class="nodeLabel"><p>id</p></span></div></foreignObject></g><g class="label attribute-keys" transform="translate(49.5, -12)" style=""><foreignObject width="18.140625" height="24"><div xmlns="http://www.w3.org/1999/xhtml" style="display: table-cell; white-space: nowrap; line-height: 1.5; max-width: 120px; text-align: start;"><span class="nodeLabel"><p>PK</p></span></div></foreignObject></g><g class="label attribute-comment" transform="translate(94.09375, -12)" style=""><foreignObject width="0" height="0"><div xmlns="http://www.w3.org/1999/xhtml" style="display: table-cell; white-space: nowrap; line-height: 1.5; max-width: 100px; text-align: start;"><span class="nodeLabel"></span></div></foreignObject></g><g class="label attribute-type" transform="translate(-69.09375, 30.75)" style=""><foreignObject width="29.4375" height="24"><div xmlns="http://www.w3.org/1999/xhtml" style="display: table-cell; white-space: nowrap; line-height: 1.5; max-width: 124px; text-align: start;"><span class="nodeLabel"><p>text</p></span></div></foreignObject></g><g class="label attribute-name" transform="translate(-14.65625, 30.75)" style=""><foreignObject width="39.15625" height="24"><div xmlns="http://www.w3.org/1999/xhtml" style="display: table-cell; white-space: nowrap; line-height: 1.5; max-width: 135px; text-align: start;"><span class="nodeLabel"><p>name</p></span></div></foreignObject></g><g class="label attribute-keys" transform="translate(49.5, 30.75)" style=""><foreignObject width="19.59375" height="24"><div xmlns="http://www.w3.org/1999/xhtml" style="display: table-cell; white-space: nowrap; line-height: 1.5; max-width: 123px; text-align: start;"><span class="nodeLabel"><p>UK</p></span></div></foreignObject></g><g class="label attribute-comment" transform="translate(94.09375, 30.75)" style=""><foreignObject width="0" height="0"><div xmlns="http://www.w3.org/1999/xhtml" style="display: table-cell; white-space: nowrap; line-height: 1.5; max-width: 100px; text-align: start;"><span class="nodeLabel"></span></div></foreignObject></g><g class="divider"><path d="M-81.59375 -21.37505 L-81.59375 -21.37495 L81.59375 -21.37495 L81.59375 -21.37505" stroke="none" stroke-width="0" fill="#ECECFF" fill-rule="evenodd"/><path d="M-81.59375 -21.37505 C-81.59375 -21.375010407616625, -81.59375 -21.374970815233247, -81.59375 -21.37495 M-81.59375 -21.37505 C-81.59375 -21.375010387317488, -81.59375 -21.374970774634978, -81.59375 -21.37495 M-81.59375 -21.37495 C-32.85249799939149 -21.37495, 15.888754001217023 -21.37495, 81.59375 -21.37495 M-81.59375 -21.37495 C-19.376219424576355 -21.37495, 42.84131115084729 -21.37495, 81.59375 -21.37495 M81.59375 -21.37495 C81.59375 -21.374981383856767, 81.59375 -21.37501276771353, 81.59375 -21.37505 M81.59375 -21.37495 C81.59375 -21.374974138739937, 81.59375 -21.37499827747987, 81.59375 -21.37505 M81.59375 -21.37505 C34.75663923396934 -21.37505, -12.080471532061324 -21.37505, -81.59375 -21.37505 M81.59375 -21.37505 C35.032832878811945 -21.37505, -11.52808424237611 -21.37505, -81.59375 -21.37505" stroke="#9370DB" stroke-width="1.3" fill="none" stroke-dasharray="0 0"/></g><g class="divider"><path d="M-27.1563 -21.375 L-27.1562 -21.375 L-27.1562 64.125 L-27.1563 64.125" stroke="none" stroke-width="0" fill="#ECECFF" fill-rule="evenodd"/><path d="M-27.1563 -21.375 C-27.156262358665124 -21.375, -27.156224717330247 -21.375, -27.1562 -21.375 M-27.1563 -21.375 C-27.156275169910675 -21.375, -27.156250339821348 -21.375, -27.1562 -21.375 M-27.1562 -21.375 C-27.1562 11.398333994126347, -27.1562 44.17166798825269, -27.1562 64.125 M-27.1562 -21.375 C-27.1562 11.197403581163961, -27.1562 43.76980716232792, -27.1562 64.125 M-27.1562 64.125 C-27.156235633794132 64.125, -27.156271267588266 64.125, -27.1563 64.125 M-27.1562 64.125 C-27.156226244303816 64.125, -27.156252488607635 64.125, -27.1563 64.125 M-27.1563 64.125 C-27.1563 40.36722391526558, -27.1563 16.60944783053116, -27.1563 -21.375 M-27.1563 64.125 C-27.1563 45.990225350788776, -27.1563 27.85545070157756, -27.1563 -21.375" stroke="#9370DB" stroke-width="1.3" fill="none" stroke-dasharray="0 0"/></g><g class="divider"><path d="M36.99995 -21.375 L37.00005 -21.375 L37.00005 64.125 L36.99995 64.125" stroke="none" stroke-width="0" fill="#ECECFF" fill-rule="evenodd"/><path d="M36.99995 -21.375 C36.99997843560814 -21.375, 37.00000687121628 -21.375, 37.00005 -21.375 M36.99995 -21.375 C36.99998808318789 -21.375, 37.00002616637577 -21.375, 37.00005 -21.375 M37.00005 -21.375 C37.00005 2.203426707999391, 37.00005 25.781853415998782, 37.00005 64.125 M37.00005 -21.375 C37.00005 -1.8723389068733667, 37.00005 17.630322186253267, 37.00005 64.125 M37.00005 64.125 C37.00001795102613 64.125, 36.99998590205226 64.125, 36.99995 64.125 M37.00005 64.125 C37.000028509930885 64.125, 37.00000701986177 64.125, 36.99995 64.125 M36.99995 64.125 C36.99995 35.26385925509432, 36.99995 6.402718510188635, 36.99995 -21.375 M36.99995 64.125 C36.99995 34.17578558153032, 36.99995 4.22657116306064, 36.99995 -21.375" stroke="#9370DB" stroke-width="1.3" fill="none" stroke-dasharray="0 0"/></g><g class="divider"><path d="M-81.59375 -21.37505 L-81.59375 -21.37495 L81.59375 -21.37495 L81.59375 -21.37505" stroke="none" stroke-width="0" fill="#ECECFF" fill-rule="evenodd"/><path d="M-81.59375 -21.37505 C-81.59375 -21.375011801384524, -81.59375 -21.37497360276905, -81.59375 -21.37495 M-81.59375 -21.37505 C-81.59375 -21.375017197394744, -81.59375 -21.37498439478949, -81.59375 -21.37495 M-81.59375 -21.37495 C-45.90651870240913 -21.37495, -10.21928740481826 -21.37495, 81.59375 -21.37495 M-81.59375 -21.37495 C-34.351160398443774 -21.37495, 12.891429203112452 -21.37495, 81.59375 -21.37495 M81.59375 -21.37495 C81.59375 -21.374972340859603, 81.59375 -21.374994681719205, 81.59375 -21.37505 M81.59375 -21.37495 C81.59375 -21.374985169509728, 81.59375 -21.375020339019457, 81.59375 -21.37505 M81.59375 -21.37505 C30.9379180208459 -21.37505, -19.717913958308202 -21.37505, -81.59375 -21.37505 M81.59375 -21.37505 C40.464381211334306 -21.37505, -0.664987577331388 -21.37505, -81.59375 -21.37505" stroke="#9370DB" stroke-width="1.3" fill="none" stroke-dasharray="0 0"/></g></g></g></g></g><defs><filter id="my-svg-drop-shadow" height="130%" width="130%"><feDropShadow dx="4" dy="4" stdDeviation="0" flood-opacity="0.06" flood-color="#000000"/></filter></defs><defs><filter id="my-svg-drop-shadow-small" height="150%" width="150%"><feDropShadow dx="2" dy="2" stdDeviation="0" flood-opacity="0.06" flood-color="#000000"/></filter></defs></svg>